<svg xmlns="http://www.w3.org/2000/svg" viewBox="0 0 14.667 20">
  <defs>
    <style>
      .cls-1 {
        fill: #ec3237;
        fill-rule: evenodd;
      }
    </style>
  </defs>
  <path id="Path_17819" data-name="Path 17819" class="cls-1" d="M37.832,18.643A1.816,1.816,0,0,0,39.664,20H46.6a1.816,1.816,0,0,0,1.831-1.357L49.8,5.333H36.464ZM45.8,7.333a.667.667,0,0,1,1.333,0l-.667,10a.667.667,0,1,1-1.333,0Zm-3.333,0a.667.667,0,1,1,1.333,0v10a.667.667,0,1,1-1.333,0ZM39.8,6.667a.667.667,0,0,1,.667.667l.667,10a.667.667,0,0,1-1.333,0l-.667-10A.667.667,0,0,1,39.8,6.667Zm9.6-4H46.464V1.333C46.464.322,46.137,0,45.13,0h-4A1.166,1.166,0,0,0,39.8,1.333V2.668H36.864a1.035,1.035,0,0,0-1.067,1,1.035,1.035,0,0,0,1.067,1H49.4a1.035,1.035,0,0,0,1.067-1A1.035,1.035,0,0,0,49.4,2.668Zm-4.267,0h-4V1.333h4V2.668Z" transform="translate(-35.797 0)"/>
</svg>
