<svg xmlns="http://www.w3.org/2000/svg" viewBox="0 0 16 16">
    <defs>
        <style>
            .cls-1{fill:#959ba6}
        </style>
    </defs>
    <g id="icn_sair" transform="translate(-165 -1107)">
        <g id="Group_1461" data-name="Group 1461" transform="translate(165 1107)">
            <g id="Group_1460" data-name="Group 1460">
                <path id="Path_4439" d="M6 8a2 2 0 0 1 2-2h2.667V.67A.666.666 0 0 0 10 0H.667A.666.666 0 0 0 0 .67v14.666A.666.666 0 0 0 .667 16H10a.666.666 0 0 0 .667-.667V10H8a2 2 0 0 1-2-2z" class="cls-1" data-name="Path 4439" transform="translate(0 -.003)"/>
                <path id="Path_4440" d="M243.184 153.084l.006-.008c.011-.014.023-.029.033-.045l.013-.022.02-.033.014-.029.014-.03.012-.033.01-.028.01-.04c.003-.014 0-.015.006-.023s.006-.036.008-.055v-.009a.668.668 0 0 0 0-.135v-.009c0-.018 0-.037-.008-.055s0-.015-.006-.023-.006-.026-.01-.039l-.01-.028-.012-.033c-.004-.011-.009-.02-.014-.03l-.014-.029-.02-.033-.013-.022a.644.644 0 0 0-.033-.045l-.006-.008a.673.673 0 0 0-.048-.053l-2.664-2.664a.667.667 0 0 0-.943.943l1.529 1.534h-5.724a.667.667 0 0 0 0 1.333h5.724l-1.529 1.529a.667.667 0 1 0 .943.943l2.664-2.664a.665.665 0 0 0 .048-.057z" class="cls-1" data-name="Path 4440" transform="translate(-227.334 -144.663)"/>
            </g>
        </g>
    </g>
</svg>
