<svg xmlns="http://www.w3.org/2000/svg" viewBox="0 0 92.12 92.12">
    <defs>
        <style>
            .yellow-1{fill:#ffcd54}.yellow-2{fill:none}.yellow-3{fill:#bc5d30}.yellow-4{fill:#fff}.yellow-5{fill:#ecba79}.yellow-6{fill:#1a1919}
        </style>
    </defs>
    <g id="avatar_antigo_bebe2" transform="translate(-1085 -362)">
        <path id="Path_16854" d="M90.66 44.6a46.06 46.06 0 1 0 46.06 46.06A46.062 46.062 0 0 0 90.66 44.6zm0 85.058a38.987 38.987 0 1 1 38.987-38.987 38.991 38.991 0 0 1-38.987 38.987z" class="yellow-1" data-name="Path 16854" transform="translate(1040.4 317.4)"/>
        <path id="Path_16855" d="M644.2 338.5c.415.568.808 1.168 1.168 1.768a11.021 11.021 0 0 0-1.168-1.768z" class="yellow-2" data-name="Path 16855" transform="translate(506.245 55.578)"/>
        <path id="Path_16856" d="M441.294 516.052a38.116 38.116 0 0 1-12.661-2.445c-.011 0-.022-.011-.033-.011s2.991 8.7 14.9 8.7a33.7 33.7 0 0 0 9.714-1.594 24.136 24.136 0 0 0 3.493-9.157c0-.011.011-.033.011-.044a25.537 25.537 0 0 1-15.424 4.551z" class="yellow-3" data-name="Path 16856" transform="translate(698.312 -98.539)"/>
        <path id="Path_16857" d="M470.742 286.927c.076.142.153.284.24.426 3.045 5.446 9.474 8.983 14.593 7.913 4.562-.95 6.6-5.261 5.1-10.107a14.512 14.512 0 0 0-.895-2.194 16.206 16.206 0 0 0-5.228-5.894 15.044 15.044 0 0 0-5.927-2.5 9.846 9.846 0 0 0-3.667.044c-5.264 1.114-7.141 6.626-4.216 12.312zM482.2 281.1a2.32 2.32 0 0 0-1.8-1.2 2.581 2.581 0 0 1 .5-.819 2.879 2.879 0 0 1 .589-.491 2.428 2.428 0 0 1 .851-.327c1.877-.393 4.344.95 6.112 3.143a9.727 9.727 0 0 1 1.168 1.768.514.514 0 0 0 .065.1c1.692 3.263 1.1 6.32-1.266 6.822s-5.665-1.757-7.346-5.021a8.485 8.485 0 0 1-.808-2.227 1.926 1.926 0 0 0 1.1.1 1.206 1.206 0 0 0 .835-1.848z" class="yellow-4" data-name="Path 16857" transform="translate(661.999 112.663)"/>
        <path id="Path_16858" d="M293.514 448.639c-5.414 1.135-11.832-1.343-16.339-5.839l-15.794 12.519a30.339 30.339 0 0 0-1.692-.065c-.207-.011-.415-.011-.633-.022a1.461 1.461 0 0 1-.218-.011 25.376 25.376 0 0 0-6.3.928 1.22 1.22 0 0 0-.382.207 2.338 2.338 0 0 0-.175.207.011.011 0 0 1-.011.011.588.588 0 0 0-.109.218 1.111 1.111 0 0 0 0 .753c.524 1.659 2.259 3.253 4.246 4.322a.066.066 0 0 0 .044.011c.131.065.251.142.382.207.011.011.033.011.066.033.142.065.273.131.415.186a.011.011 0 0 1 .011.011 7.438 7.438 0 0 0 .884.349.065.065 0 0 0 .044.011c.131.044.251.1.36.131a.343.343 0 0 1 .1.033l.327.1a.768.768 0 0 1 .131.033c.109.011.218.065.327.076a.3.3 0 0 0 .1.011c.284.065.557.1.808.131.033 0 .065.011.109.011a2.465 2.465 0 0 0 .284.011h.535c.076 0 .175-.011.251-.011.033 0 .076-.011.109-.011a1.743 1.743 0 0 0 .327-.065 9.613 9.613 0 0 0 1.637-.5c.644 1.583 1.07 2.729.917 2.75a13.044 13.044 0 0 1-4.06.535 26.128 26.128 0 0 0 20.116 4.137 24.027 24.027 0 0 0 15.412-10.565c-1.135.338-2.2.6-3.242.83-.317.065-.611.12-.917.175-.742.142-1.452.251-2.139.338-.284.033-.568.076-.84.1-.862.087-1.7.131-2.489.142H286c-11.886-.011-14.877-8.7-14.877-8.7 15.3 5.534 24.831.306 28.084-2.052.011-.011.033-.022.044-.033a24.2 24.2 0 0 0 .251-5.348 9.534 9.534 0 0 1-5.988 3.705z" class="yellow-5" data-name="Path 16858" transform="translate(855.817 -37.338)"/>
        <path id="Path_16859" d="M224.33 265c.109.8.24 1.583.4 2.347.033.153.055.317.1.469.218.939.48 1.834.753 2.674.011.044.033.087.044.142.284.851.589 1.648.884 2.369a24.508 24.508 0 0 1 8.524-1.026l15.1-12.6c-.186-.295-.415-.568-.589-.873-.109-.186-.207-.371-.317-.557-3.755-7.215-1.463-14.178 5.075-15.87a22.774 22.774 0 0 0-18.38 1.419 27.56 27.56 0 0 0-6.756 5.37 18.48 18.48 0 0 0-5.043 12.3 23.036 23.036 0 0 0 .12 3.023c.019.289.055.551.085.813z" class="yellow-1" data-name="Path 16859" transform="translate(880.481 142.624)"/>
        <g id="Group_2206" data-name="Group 2206" transform="translate(1100.47 379.008)">
            <path id="Path_16860" d="M570.5 313.627a1.926 1.926 0 0 1-1.1-.1 8.488 8.488 0 0 0 .808 2.227c1.67 3.263 4.955 5.512 7.346 5.021 2.369-.5 2.958-3.558 1.266-6.822a.511.511 0 0 0-.065-.1 10.331 10.331 0 0 0-1.168-1.768c-1.768-2.194-4.235-3.536-6.112-3.143a2.659 2.659 0 0 0-.851.327 2.82 2.82 0 0 0-.589.491 2.509 2.509 0 0 0-.5.819 2.32 2.32 0 0 1 1.8 1.2 1.211 1.211 0 0 1-.835 1.848z" data-name="Path 16860" transform="translate(-527.589 -297.04)"/>
            <path id="Path_16861" d="M247.507 223.238c-.175-1.343-2.128-1.266-3.667-.993-4.519-14.953-20.039-24.383-35.331-21.2a27.773 27.773 0 0 0-21.273 34.392c3.984 15.7 19.963 25.77 35.68 22.506a27.714 27.714 0 0 0 21.993-30.43c1.255-1.251 2.75-3.02 2.598-4.275zm-21.022-14.582a15.018 15.018 0 0 1 5.927 2.5 16.119 16.119 0 0 1 5.228 5.894 13.455 13.455 0 0 1 .9 2.194c1.5 4.846-.535 9.157-5.1 10.107-5.119 1.07-11.548-2.467-14.593-7.913a8.317 8.317 0 0 0-.24-.426c-2.925-5.687-1.037-11.2 4.213-12.3a9.619 9.619 0 0 1 3.665-.056zm-34.512 26.01c-.011-.044-.033-.087-.044-.142a32.246 32.246 0 0 1-.753-2.674l-.1-.469a28.04 28.04 0 0 1-.4-2.347c-.033-.273-.065-.524-.1-.8a23.036 23.036 0 0 1-.12-3.023 18.427 18.427 0 0 1 5.043-12.3 27.763 27.763 0 0 1 6.756-5.37 22.732 22.732 0 0 1 18.38-1.419c-6.538 1.692-8.83 8.655-5.075 15.87.109.186.207.371.317.557.175.306.393.578.589.873l-15.084 12.6a24.015 24.015 0 0 0-8.524 1.026 40.632 40.632 0 0 1-.885-2.382zm48.963-.273c-.011.011-.033.022-.044.033a24.247 24.247 0 0 1-3.493 9.157c-.24.076-.469.12-.7.186.251-.065.48-.109.731-.186a24.028 24.028 0 0 1-15.412 10.565 26.165 26.165 0 0 1-20.116-4.137 13.043 13.043 0 0 0 4.06-.535c.153-.011-.273-1.168-.917-2.751a8.72 8.72 0 0 1-1.637.5c-.109.033-.218.044-.327.065-.033 0-.076.011-.109.011-.076 0-.175.011-.251.011h-.535a2.468 2.468 0 0 1-.284-.011c-.044 0-.076-.011-.109-.011-.251-.033-.524-.065-.808-.131a.3.3 0 0 1-.1-.011c-.109-.011-.218-.066-.327-.076a.764.764 0 0 1-.131-.033l-.327-.1a.348.348 0 0 1-.1-.033 2.918 2.918 0 0 1-.36-.131.066.066 0 0 1-.044-.011 7.425 7.425 0 0 1-.884-.349.011.011 0 0 0-.011-.011c-.142-.066-.273-.131-.415-.186a.125.125 0 0 1-.065-.033c-.131-.066-.251-.142-.382-.207a.066.066 0 0 1-.044-.011c-1.986-1.07-3.722-2.674-4.246-4.322a1.111 1.111 0 0 1 0-.753.588.588 0 0 1 .109-.218.011.011 0 0 0 .011-.011 2.107 2.107 0 0 1 .175-.207 1.494 1.494 0 0 1 .382-.207 25.377 25.377 0 0 1 6.3-.928 1.461 1.461 0 0 1 .218.011c.218 0 .426.011.633.022.546.011 1.081.022 1.692.065l15.794-12.519c4.519 4.5 10.926 6.974 16.339 5.839a9.607 9.607 0 0 0 5.981-3.678 24.064 24.064 0 0 1-.247 5.332z" class="yellow-6" data-name="Path 16861" transform="translate(-186.333 -200.43)"/>
        </g>
    </g>
</svg>