<svg xmlns="http://www.w3.org/2000/svg" xmlns:xlink="http://www.w3.org/1999/xlink" viewBox="0 0 1231.727 154.193">
  <defs>
    <style>
      .cls-1 {
        fill: url(#linear-gradient);
      }
    </style>
    <linearGradient id="linear-gradient" x1="0.5" x2="0.5" y2="1" gradientUnits="objectBoundingBox">
      <stop offset="0" stop-color="#f5fdff"/>
      <stop offset="1" stop-color="#e3fcff"/>
    </linearGradient>
  </defs>
  <path id="wave-azul" class="cls-1" d="M-719.192,219.3l-18.828-8.324c-30.406-7.983-64.276,5.664-72.826,22.2a61.037,61.037,0,0,0-18.738-19.819c-20.354-5.25-51.255-3.941-64.579,22.2-12.538-21.634-33.064-30.524-53.117-31.612h-8.6c-21.312,1.138-40.659,10.539-47.394,21.982a57.446,57.446,0,0,0-10.941-14.977c-18.969-7.384-59.213-9.185-73.064,22.291-14.358-21.872-36.528-29.57-57.336-29.092l-20.519,3.123c-14.943,4.27-27.04,12.409-31.673,21.4a62.365,62.365,0,0,0-22.424-22.223c-17.73.362-36.877,7-45.587,26.789-30.686-46.746-97.071-28.746-109.527-4.567a58.983,58.983,0,0,0-13.206-15.662c-20.6-4.879-52.974-2.836-65.1,24.73a63.285,63.285,0,0,0-20.277-19.758l-14.4-6.365c-30.866-9.316-66.12,4.6-74.855,21.555a61.02,61.02,0,0,0-18.832-19.928c-20.357-5.121-50.92-3.648-64.151,22.309-12.538-21.634-33.064-30.524-53.117-31.612h-8.6c-21.312,1.138-40.66,10.539-47.395,21.982a57.431,57.431,0,0,0-10.934-14.971,61.3,61.3,0,0,0-8.235-2.509,79.291,79.291,0,0,0-17.694-2.012,69.834,69.834,0,0,0-13.765,1.323,53.881,53.881,0,0,0-13.252,4.438,41.585,41.585,0,0,0-20.123,21.042v0a64.777,64.777,0,0,0-14.449-15.762V215.57h0V83.548H-621l-1.726,120.395v12.889l-.651-.212a11.914,11.914,0,0,1,.651,1.106c-15.854-9-62.961-14.507-78.206,20.015A63.763,63.763,0,0,0-719.192,219.3Z" transform="translate(-620.999 237.74) rotate(180)"/>
</svg>
