<svg xmlns="http://www.w3.org/2000/svg" viewBox="0 0 19.895 20">
  <defs>
    <style>
      .cls-1 {
        fill: #3054a0;
      }
    </style>
  </defs>
  <path id="Union_7" data-name="Union 7" class="cls-1" d="M-1126.071-135.5a1.43,1.43,0,0,1-1.429-1.428v-11.056a1.431,1.431,0,0,1,1.429-1.429h11.056a1.431,1.431,0,0,1,1.428,1.429v11.056a1.43,1.43,0,0,1-1.428,1.428Zm13.788-6.087v-6.4a2.736,2.736,0,0,0-2.732-2.733h-6.5v-3.353a1.43,1.43,0,0,1,1.429-1.429h11.056a1.43,1.43,0,0,1,1.428,1.429v11.056a1.43,1.43,0,0,1-1.428,1.428Z" transform="translate(1127.5 155.5)"/>
</svg>
