<svg xmlns="http://www.w3.org/2000/svg" id="logo_mgb" viewBox="0 0 77.741 20">
  <defs>
    <style>
      .icn_logo {
        fill: #fff;
      }
    </style>
  </defs>
  <path id="Path_4313" data-name="Path 4313" class="icn_logo" d="M21.846,19.97l1-19.97H18.457L13.011,11.679c-.545,1.15-1.029,2.572-1.029,2.572h-.061s0-1.392-.121-2.572L10.348,0H5.93L0,19.97H3.6L7.2,7.262c.363-1.241.666-2.723.666-2.723h.061s.03,1.422.182,2.693L9.682,19.939h2.481L18.154,7.262c.605-1.271,1.12-2.693,1.12-2.693h.061s-.212,1.452-.272,2.693L18.245,19.97Z" transform="translate(0 0)"/>
  <path id="Path_4314" data-name="Path 4314" class="icn_logo" d="M94.208,17.337a2.659,2.659,0,0,1-1.452,1.876,5.6,5.6,0,0,1-2.814.756,8.033,8.033,0,0,1-6.9-3.3A8.914,8.914,0,0,1,81.47,9.713a11.134,11.134,0,0,1,4.024-6.778A12.352,12.352,0,0,1,93.633,0c.182,0,.484.03.908.061s.635.061.666.061l-.666,3.812-1.18-.061a7.915,7.915,0,0,0-4.9,1.573,6.953,6.953,0,0,0-2.784,4.569,5.1,5.1,0,0,0,.968,4.054,4.126,4.126,0,0,0,3.54,1.785l1.21-7.292c1.573-.877,3.419,1.241,4.327-.333Z" transform="translate(-56.72 0)"/>
  <path id="Path_4315" data-name="Path 4315" class="icn_logo" d="M147.1,7.262a6.062,6.062,0,0,0,.877-2.239,4.175,4.175,0,0,0-.938-3.51A3.924,3.924,0,0,0,143.952,0h-6.505a3.789,3.789,0,0,0-2.39.847A3.291,3.291,0,0,0,133.725,2.9l-2.209,13.374a3.319,3.319,0,0,0,.605,2.9,2.428,2.428,0,0,0,1.906.817h6.838a6.321,6.321,0,0,0,4.145-1.634,6.536,6.536,0,0,0,2.36-4.024,5.6,5.6,0,0,0-.242-2.935,4.328,4.328,0,0,0-1.785-2.179A9,9,0,0,0,147.1,7.262Zm-3.116-1.543c-.182,1.18-1.089,1.725-2.057,2.209h-3.147l-.666,3.631h4.236a2.1,2.1,0,0,1,1,.635c1.331,1.6-.454,4.145-2.33,4.145H135.48c.7-4.236,1.483-8.351,2.179-12.587h4.9C143.5,3.722,144.1,4.871,143.982,5.719Z" transform="translate(-91.667 0)"/>
  <path id="Path_4316" data-name="Path 4316" class="icn_logo" d="M189.2,14.336c3.419-2.965,6.929-4.206,10.681-3.9a10.4,10.4,0,0,1,2.723.575c1.513.545,2.632,1.634,4.539.817a4.482,4.482,0,0,0,2.481-3.48c.847-5.6-6.112-5.658-9.471-4.085A24.179,24.179,0,0,0,189.2,14.336" transform="translate(-131.953 -3.376)"/>
</svg>