<svg xmlns="http://www.w3.org/2000/svg" viewBox="0 0 15 15">
  <defs>
    <style>
      .cls-1 {
        fill: #6a6e76;
      }
    </style>
  </defs>
  <path id="Path_17827" data-name="Path 17827" class="cls-1" d="M4.688,7.5H2.813V5.625H4.688Zm3.75-1.875H6.563V7.5H8.438Zm3.75,0H10.313V7.5h1.875Zm-7.5,2.813H2.813v1.875H4.688Zm3.75,0H6.563v1.875H8.438Zm3.75,0H10.313v1.875h1.875Zm-7.5,2.813H2.813v1.875H4.688Zm3.75,0H6.563v1.875H8.438ZM3.75,2.813a.937.937,0,0,0,.938-.937V.938a.938.938,0,0,0-1.875,0v.938A.937.937,0,0,0,3.75,2.813ZM15,1.875V15H0V1.875H2.344a1.406,1.406,0,0,0,2.813,0H9.844a1.406,1.406,0,0,0,2.813,0Zm-.937,2.813H.938v9.375H14.063ZM11.25,2.813a.937.937,0,0,0,.938-.937V.938a.938.938,0,0,0-1.875,0v.938A.937.937,0,0,0,11.25,2.813Z"/>
</svg>
