<svg id="icn_user_admin" xmlns="http://www.w3.org/2000/svg" viewBox="0 0 21.839 21.839">
  <defs>
    <style>
      .cls-1 {
        fill: #fff;
      }
    </style>
  </defs>
  <g id="Group_1343" data-name="Group 1343">
    <g id="Group_1342" data-name="Group 1342">
      <path id="Path_16842" data-name="Path 16842" class="cls-1" d="M21.839,13.377V8.462l-2.065-.4A9.267,9.267,0,0,0,19.2,6.69l1.18-1.744L16.913,1.467,15.167,2.643a9.263,9.263,0,0,0-1.389-.578L13.377,0H8.462l-.4,2.065a9.267,9.267,0,0,0-1.372.569L4.945,1.455,1.467,4.926,2.643,6.673a9.263,9.263,0,0,0-.578,1.389L0,8.462v4.915l2.065.4a9.27,9.27,0,0,0,.569,1.372l-1.18,1.744,3.472,3.479L6.673,19.2a9.261,9.261,0,0,0,1.389.578l.4,2.065h4.915l.4-2.065A9.267,9.267,0,0,0,15.15,19.2l1.744,1.18,3.479-3.472L19.2,15.167a9.266,9.266,0,0,0,.578-1.389ZM11.009,17.7a6.783,6.783,0,1,1,6.783-6.783A6.79,6.79,0,0,1,11.009,17.7Z"/>
    </g>
  </g>
  <g id="Group_1345" data-name="Group 1345" transform="translate(7.538 6.964)">
    <g id="Group_1344" data-name="Group 1344">
      <path id="Path_16843" data-name="Path 16843" class="cls-1" d="M182,166.6a2.152,2.152,0,1,0-3.605,0,2.971,2.971,0,0,0-1.665,2.665v.64h6.94v-.64A2.971,2.971,0,0,0,182,166.6Z" transform="translate(-176.73 -163.273)"/>
    </g>
  </g>
</svg>
