<svg xmlns="http://www.w3.org/2000/svg" viewBox="0 0 22.5 18">
  <defs>
    <style>
      .icn_class-1 {
        fill: #fff;
      }
    </style>
  </defs>
  <path id="icn_class" class="icn_class-1" d="M21.375,51.2H1.125A1.063,1.063,0,0,0,0,52.325v15.75A1.063,1.063,0,0,0,1.125,69.2h20.25A1.063,1.063,0,0,0,22.5,68.075V52.325A1.063,1.063,0,0,0,21.375,51.2ZM10.125,64.7H3.375a1.125,1.125,0,0,1,0-2.25h6.75a1.125,1.125,0,0,1,0,2.25Zm0-4.5H3.375a1.125,1.125,0,0,1,0-2.25h6.75a1.125,1.125,0,0,1,0,2.25ZM18,63.35v3.6l-1.125-1.125L15.75,66.95v-3.6A3.277,3.277,0,0,1,13.5,60.2a3.375,3.375,0,1,1,6.75,0A3.277,3.277,0,0,1,18,63.35Zm1.125-7.65H3.375A1.127,1.127,0,0,1,2.25,54.575,1.063,1.063,0,0,1,3.375,53.45h15.75a1.125,1.125,0,1,1,0,2.25Z" transform="translate(0 -51.2)"/>
</svg>