<svg xmlns="http://www.w3.org/2000/svg" viewBox="0 0 21.839 17">
  <defs>
    <style>
      .cls-1 {
        fill: #fff;
      }
    </style>
  </defs>
  <g id="icn_users" transform="translate(0 0)">
    <path id="Path_16840" data-name="Path 16840" class="cls-1" d="M19.326,106.9H15.115v.224a1.719,1.719,0,0,1-1.729,1.706H8.449a1.719,1.719,0,0,1-1.729-1.706V106.9H2.509A2.492,2.492,0,0,0,0,109.375v9.51a2.492,2.492,0,0,0,2.509,2.475H19.331a2.492,2.492,0,0,0,2.509-2.475v-9.51A2.493,2.493,0,0,0,19.326,106.9ZM4.612,112.242A2.366,2.366,0,0,1,4.545,112h0a1.6,1.6,0,0,1,.446-1.548,2.221,2.221,0,0,1,.419-.343,1.847,1.847,0,0,1,.406-.207h0a1.449,1.449,0,0,1,.37-.07,1.538,1.538,0,0,1,.927.193,1.17,1.17,0,0,1,.45.413s.749.053.495,1.556a1.185,1.185,0,0,1-.067.237c.152-.013.325.07.16.651-.12.422-.236.541-.321.55A1.83,1.83,0,0,1,6.706,114.8a1.262,1.262,0,0,1-.824,0,1.8,1.8,0,0,1-1.123-1.372c-.085-.009-.2-.128-.321-.55C4.287,112.312,4.465,112.224,4.612,112.242Zm1.711,5.891H2.669c.018-1.495-.04-2.295.94-2.647a8.436,8.436,0,0,0,1.426-.681l.686,2.145.094.29.307-.862c-.709-.976.053-1.02.187-1.02h0c.134,0,.891.048.187,1.02l.307.862.094-.29.686-2.145a8.436,8.436,0,0,0,1.426.681c.985.352.922,1.152.94,2.647Zm13.061-1.6h-7.33v-.923h7.33Zm0-1.943h-7.33v-.923h7.33Zm0-1.948h-7.33v-.923h7.33Z" transform="translate(0 -104.36)"/>
    <path id="Path_16841" data-name="Path 16841" class="cls-1" d="M170.471,58.057h5.346a.971.971,0,0,0,.971-.971v-.662a.971.971,0,0,0-.971-.971h-.3v-.41a.744.744,0,0,0-.744-.744h-3.25a.744.744,0,0,0-.744.744v.41h-.3a.971.971,0,0,0-.971.971v.662A.971.971,0,0,0,170.471,58.057Z" transform="translate(-162.228 -54.3)"/>
  </g>
</svg>