<svg xmlns="http://www.w3.org/2000/svg" viewBox="0 0 26 15.195">
  <defs>
    <style>
      .glasses {
        fill: #00b3d3;
      }
    </style>
  </defs>
  <path id="icon" class="glasses" d="M25.978,102.4a1.163,1.163,0,0,0,.015-.18c0-3.679-1.3-6.131-3.965-7.495-2.421-1.238-5.77-1.408-9.028-1.408s-6.608.171-9.028,1.408C1.3,96.09.006,98.542.006,102.221a1.156,1.156,0,0,0,.015.18A.61.61,0,0,0,0,102.56v2.916a.7.7,0,0,0,.505.661l1.859.506a5.851,5.851,0,0,0,4.45,1.871,5.612,5.612,0,0,0,4.837-2.406h2.7a5.612,5.612,0,0,0,4.837,2.406,5.851,5.851,0,0,0,4.45-1.871l1.859-.506a.7.7,0,0,0,.505-.661V102.56A.613.613,0,0,0,25.978,102.4ZM13,95.634c6.99,0,10.44.921,10.666,6.034l-.371-.054a6.013,6.013,0,0,0-4.108-1.513,5.612,5.612,0,0,0-4.837,2.406h-2.7A5.612,5.612,0,0,0,6.813,100.1a6.013,6.013,0,0,0-4.108,1.513l-.371.054C2.56,96.554,6.01,95.634,13,95.634Z" transform="translate(0 -93.318)"/>
</svg>