<svg xmlns="http://www.w3.org/2000/svg" viewBox="0 0 35 6.102">
  <defs>
    <style>
      .cls-1 {
        fill: #959ba6;
      }
    </style>
  </defs>
  <path id="sea-waves" class="cls-1" d="M43.259,21.936a4.767,4.767,0,0,1-7.33,0,6.812,6.812,0,0,0-10.17,0,4.767,4.767,0,0,1-7.33,0,6.859,6.859,0,0,0-5.085-2.28v2.1a4.847,4.847,0,0,1,3.665,1.718,6.812,6.812,0,0,0,10.17,0,4.767,4.767,0,0,1,7.33,0,6.812,6.812,0,0,0,10.17,0,4.847,4.847,0,0,1,3.665-1.718v-2.1A6.859,6.859,0,0,0,43.259,21.936Z" transform="translate(-13.344 -19.657)"/>
</svg>
