<svg xmlns="http://www.w3.org/2000/svg" viewBox="0 0 21 18.421">
  <defs>
    <style>
      .cls-1 {
        fill: #fff;
      }
    </style>
  </defs>
  <path id="icn_locals" class="cls-1" d="M17.15,18.374c-.525-.174-.788-.7-1.225-1.049a3.051,3.051,0,0,0-4.288.437c-.437.438-.612.612-1.137.612s-.7-.174-1.138-.612A3.216,3.216,0,0,0,7,16.625a3.074,3.074,0,0,0-2.363,1.137c-.437.438-.612.612-1.137.612s-.7-.174-1.138-.612A3.216,3.216,0,0,0,0,16.625v-3.5c1.75,0,1.75,1.75,3.5,1.75s1.749-1.75,3.5-1.75,1.75,1.75,3.5,1.75,1.749-1.75,3.5-1.75,1.75,1.75,3.5,1.75,1.75-1.75,3.5-1.75v3.5a3.22,3.22,0,0,0-2.363,1.137,1.729,1.729,0,0,1-1.171.658A1.129,1.129,0,0,1,17.15,18.374Zm-4.025-6.124V10.5H7v1.75H5.25V4.375A4.333,4.333,0,0,1,9.624,0h1.75V1.75H9.624A2.577,2.577,0,0,0,7,4.375V5.25h6.125V4.375A4.333,4.333,0,0,1,17.5,0H19.25V1.75H17.5a2.577,2.577,0,0,0-2.625,2.624v7.876ZM7,8.75h6.125V7H7Z" transform="translate(0 0)"/>
</svg>
