<svg xmlns="http://www.w3.org/2000/svg" viewBox="0 0 20.212 18">
  <defs>
    <style>
      .cls-1 {
        fill: #00b3d3;
      }
    </style>
  </defs>
  <path id="icn_licensed" class="cls-1" d="M20,70.075h-.391V59.717a.208.208,0,0,0-.153-.2l-9.065-2.474a.208.208,0,0,1-.153-.2V54.88c0-.936-2.158-1.694-4.821-1.694S.6,53.945.6,54.88v15.2H.208A.208.208,0,0,0,0,70.283v.695a.208.208,0,0,0,.208.208H20a.208.208,0,0,0,.208-.208v-.695A.208.208,0,0,0,20,70.075Zm-17.756-2.4a.208.208,0,0,1-.152.2,6.374,6.374,0,0,0-.789.277.208.208,0,0,1-.292-.19v-.916a.209.209,0,0,1,.119-.188,5.767,5.767,0,0,1,.846-.322.208.208,0,0,1,.268.2v.94Zm0-2.222a.208.208,0,0,1-.152.2,6.374,6.374,0,0,0-.789.277.208.208,0,0,1-.292-.19v-.916a.209.209,0,0,1,.119-.188,5.768,5.768,0,0,1,.846-.322.208.208,0,0,1,.268.2v.94Zm0-2.222a.208.208,0,0,1-.152.2,6.374,6.374,0,0,0-.789.277.208.208,0,0,1-.292-.19V62.6a.209.209,0,0,1,.119-.188,5.765,5.765,0,0,1,.846-.322.208.208,0,0,1,.268.2v.94Zm0-2.222a.208.208,0,0,1-.152.2,6.378,6.378,0,0,0-.789.277.208.208,0,0,1-.292-.19v-.916a.209.209,0,0,1,.119-.188,5.767,5.767,0,0,1,.846-.322.208.208,0,0,1,.268.2v.94Zm0-2.222a.208.208,0,0,1-.152.2,6.374,6.374,0,0,0-.789.277.208.208,0,0,1-.292-.19v-.916a.209.209,0,0,1,.119-.188,5.768,5.768,0,0,1,.846-.322.208.208,0,0,1,.268.2v.94Zm0-2.222a.208.208,0,0,1-.152.2,6.379,6.379,0,0,0-.789.277.208.208,0,0,1-.292-.19v-.916a.209.209,0,0,1,.119-.188,5.768,5.768,0,0,1,.846-.322.208.208,0,0,1,.268.2v.94Zm2.909,10.7a.208.208,0,0,1-.2.208,13.382,13.382,0,0,0-1.937.2.208.208,0,0,1-.245-.2v-.95a.208.208,0,0,1,.169-.2,13.272,13.272,0,0,1,2-.209.208.208,0,0,1,.214.208v.957Zm0-2.222a.208.208,0,0,1-.2.208,13.377,13.377,0,0,0-1.937.2.208.208,0,0,1-.245-.2v-.95a.208.208,0,0,1,.169-.2,13.269,13.269,0,0,1,2-.209.208.208,0,0,1,.214.208v.957Zm0-2.222a.208.208,0,0,1-.2.208,13.376,13.376,0,0,0-1.937.2.208.208,0,0,1-.245-.2v-.95a.208.208,0,0,1,.169-.2,13.277,13.277,0,0,1,2-.208.208.208,0,0,1,.214.208v.957Zm0-2.222a.208.208,0,0,1-.2.208,13.382,13.382,0,0,0-1.937.2.208.208,0,0,1-.245-.2v-.95a.208.208,0,0,1,.169-.2,13.275,13.275,0,0,1,2-.209.208.208,0,0,1,.214.208v.957Zm0-2.222a.208.208,0,0,1-.2.208,13.379,13.379,0,0,0-1.937.2.208.208,0,0,1-.245-.2v-.95a.208.208,0,0,1,.169-.2,13.269,13.269,0,0,1,2-.209.208.208,0,0,1,.214.208v.957Zm0-2.222a.208.208,0,0,1-.2.208,13.373,13.373,0,0,0-1.937.2.208.208,0,0,1-.245-.2V55.4a.208.208,0,0,1,.169-.2,13.274,13.274,0,0,1,2-.209.208.208,0,0,1,.214.208v.957Zm3.435-.527a.208.208,0,0,1,.268-.2,5.767,5.767,0,0,1,.846.322.209.209,0,0,1,.119.188v.916a.208.208,0,0,1-.292.19,6.37,6.37,0,0,0-.789-.277.208.208,0,0,1-.152-.2v-.94ZM8.067,67.46a.208.208,0,0,1-.245.2,13.377,13.377,0,0,0-1.937-.2.208.208,0,0,1-.2-.208V66.3A.208.208,0,0,1,5.9,66.1a13.269,13.269,0,0,1,2,.209.208.208,0,0,1,.169.2v.95Zm0-2.222a.208.208,0,0,1-.245.2,13.38,13.38,0,0,0-1.937-.2.208.208,0,0,1-.2-.208v-.957a.208.208,0,0,1,.214-.208,13.272,13.272,0,0,1,2,.208.208.208,0,0,1,.169.2v.95Zm0-2.222a.208.208,0,0,1-.245.2,13.376,13.376,0,0,0-1.937-.2.208.208,0,0,1-.2-.208V61.86a.208.208,0,0,1,.214-.208,13.269,13.269,0,0,1,2,.209.208.208,0,0,1,.169.2v.95Zm0-2.222a.208.208,0,0,1-.245.2,13.376,13.376,0,0,0-1.937-.2.208.208,0,0,1-.2-.208v-.957a.208.208,0,0,1,.214-.208,13.274,13.274,0,0,1,2,.208.208.208,0,0,1,.169.2v.95Zm0-2.222a.208.208,0,0,1-.245.2,13.373,13.373,0,0,0-1.937-.2.208.208,0,0,1-.2-.208v-.957a.208.208,0,0,1,.214-.208,13.269,13.269,0,0,1,2,.209.208.208,0,0,1,.169.2v.95Zm0-2.222a.208.208,0,0,1-.245.2,13.373,13.373,0,0,0-1.937-.2.208.208,0,0,1-.2-.208v-.957a.208.208,0,0,1,.214-.208,13.269,13.269,0,0,1,2,.209.208.208,0,0,1,.169.2v.95Zm.525,2.437v-.94a.208.208,0,0,1,.268-.2,5.768,5.768,0,0,1,.846.322.209.209,0,0,1,.119.188v.916a.208.208,0,0,1-.292.19,6.374,6.374,0,0,0-.789-.277A.208.208,0,0,1,8.592,58.785Zm6.736,11.291h-3.2V68.156a.208.208,0,0,1,.208-.208H15.12a.208.208,0,0,1,.208.208Zm3.286-3.649a.208.208,0,0,1-.208.208H9.5a.208.208,0,0,1-.208-.208v-.8a.208.208,0,0,1,.208-.208h8.91a.208.208,0,0,1,.208.208Zm0-2.059a.208.208,0,0,1-.208.208H9.5a.208.208,0,0,1-.208-.208v-.8a.208.208,0,0,1,.208-.208h8.91a.208.208,0,0,1,.208.208Zm0-2.059a.208.208,0,0,1-.208.208H9.5a.208.208,0,0,1-.208-.208v-.8A.208.208,0,0,1,9.5,61.3h8.91a.208.208,0,0,1,.208.208Z" transform="translate(0 -53.186)"/>
</svg>
