<svg xmlns="http://www.w3.org/2000/svg" viewBox="0 0 22.747 13.857">
  <defs>
    <style>
      .cls-1 {
        fill: #fff;
      }
    </style>
  </defs>
  <g id="icn_customers" transform="translate(0)">
    <path id="XMLID_35_" class="cls-1" d="M315.915,131.878a2.83,2.83,0,1,0-4-.094A2.829,2.829,0,0,0,315.915,131.878Z" transform="translate(-297.604 -127.003)"/>
    <path id="Subtraction_3" data-name="Subtraction 3" class="cls-1" d="M5.251,7.9a.809.809,0,0,1-.6-.257,2.316,2.316,0,0,0-1.137-.686l4.3-3.668-2.038-.8-4.058,2A1.191,1.191,0,0,1,.664,2.354L5.192.121A1.209,1.209,0,0,1,6.153.08l4.994,1.952a3.86,3.86,0,0,1,.845.634l.656.687a3.956,3.956,0,0,1,.272.336l.1.135,2.055,2.731L20,5.99a1.209,1.209,0,0,1,.14-.008,1.187,1.187,0,0,1,1.178,1.055.94.94,0,0,1-.291.7.828.828,0,0,0-.094-.124.722.722,0,0,0-1.082,0,.833.833,0,0,1-1.247,0,2.328,2.328,0,0,0-3.411,0,.852.852,0,0,1-1.247,0,2.343,2.343,0,0,0-3.411,0l-.013.015a.833.833,0,0,1-1.236-.014,2.3,2.3,0,0,0-1.7-.768,2.357,2.357,0,0,0-1.738.8A.809.809,0,0,1,5.251,7.9Z" transform="translate(1.424 2.236)"/>
    <path id="XMLID_43_" class="cls-1" d="M25.967,347.993a.832.832,0,0,1-1.247,0,2.329,2.329,0,0,0-3.412,0,.852.852,0,0,1-1.247,0,2.342,2.342,0,0,0-3.411,0l-.013.015a.832.832,0,0,1-1.236-.014,2.281,2.281,0,0,0-3.441.032.82.82,0,0,1-1.19,0,2.244,2.244,0,0,0-3.356,0,.969.969,0,0,1-1.418,0,.723.723,0,0,0-1.082,0,.883.883,0,0,0,0,1.175,2.393,2.393,0,0,0,3.582,0,.8.8,0,0,1,1.193,0,2.284,2.284,0,0,0,3.382-.032.834.834,0,0,1,1.249,0,2.279,2.279,0,0,0,3.409,0l.013-.014a.86.86,0,0,1,1.236.012,2.33,2.33,0,0,0,3.411,0,.852.852,0,0,1,1.248,0,2.278,2.278,0,0,0,3.412,0,.882.882,0,0,0,0-1.175A.722.722,0,0,0,25.967,347.993Z" transform="translate(-4.69 -336.147)"/>
  </g>
</svg>
