<svg xmlns="http://www.w3.org/2000/svg" viewBox="0 0 15.932 16">
    <defs>
        <style>
            .cls-1{fill:#959ba6}
        </style>
    </defs>
    <g id="icn_calendario" transform="translate(-660 -1108)">
        <g id="Group_1968" data-name="Group 1968" transform="translate(660 1108)">
            <path id="Path_16815" d="M302 298.521a3.14 3.14 0 1 0 0 4.441 3.137 3.137 0 0 0 0-4.441zm-.686 2.684h-1.626a.285.285 0 0 1-.291-.291v-1.966a.291.291 0 1 1 .581 0v1.675h1.332a.287.287 0 0 1 .291.291.282.282 0 0 1-.288.286z" class="cls-1" data-name="Path 16815" transform="translate(-286.985 -287.882)"/>
            <path id="Path_16816" d="M351.607 2.841a.371.371 0 0 0 .369-.369V.369a.369.369 0 1 0-.738 0v2.106a.366.366 0 0 0 .369.366z" class="cls-1" data-name="Path 16816" transform="translate(-339.803)"/>
            <path id="Path_16817" d="M250.507 2.841a.371.371 0 0 0 .369-.369V.369a.369.369 0 0 0-.738 0v2.106a.386.386 0 0 0 .369.366z" class="cls-1" data-name="Path 16817" transform="translate(-242.004)"/>
            <path id="Path_16818" d="M149.906 2.841a.371.371 0 0 0 .369-.369V.369a.369.369 0 0 0-.738 0v2.106a.366.366 0 0 0 .369.366z" class="cls-1" data-name="Path 16818" transform="translate(-144.688)"/>
            <path id="Path_16819" d="M49.206 2.841a.371.371 0 0 0 .369-.369V.369a.369.369 0 0 0-.738 0v2.106a.368.368 0 0 0 .369.366z" class="cls-1" data-name="Path 16819" transform="translate(-47.276)"/>
            <path id="Path_16820" d="M14.756 44.3h-.823v1.029a1.1 1.1 0 1 1-2.207 0V44.3h-1.091v1.029a1.1 1.1 0 1 1-2.207 0V44.3H7.363v1.029a1.1 1.1 0 1 1-2.207 0V44.3H4.065v1.029a1.107 1.107 0 0 1-2.214 0V44.3h-.813v3.02h13.718V44.3z" class="cls-1" data-name="Path 16820" transform="translate(-1.038 -42.853)"/>
            <path id="Path_16821" d="M11.1 164.331a3.846 3.846 0 0 1 3.664-1.012V159.4H1.037v8.718h9.084a3.858 3.858 0 0 1 .979-3.787zm-.206-3.422h1.829v1.447H10.9zm-6 4.859H3.068v-1.433H4.9zm0-3.425H3.068v-1.433H4.9zm3.922 3.425H6.99v-1.433h1.828zm0-3.425H6.99v-1.433h1.828z" class="cls-1" data-name="Path 16821" transform="translate(-1.037 -154.195)"/>
        </g>
    </g>
</svg>
