<svg xmlns="http://www.w3.org/2000/svg" viewBox="0 0 16 16.001">
    <defs>
        <style>
            .cls-1{fill:#959ba6}
        </style>
    </defs>
    <g id="icn_trocar_perfil" transform="translate(-119 -1107)">
        <g id="Group_1458" data-name="Group 1458" transform="translate(119 1107)">
            <g id="Group_1457" data-name="Group 1457">
                <path id="Path_4434" d="M299.021.709h2a1.669 1.669 0 0 1 1.667 1.667v1.2l-.764-.764a.333.333 0 0 0-.471.471l1.333 1.333a.343.343 0 0 0 .1.07.333.333 0 0 0 .127.025.342.342 0 0 0 .126-.025.337.337 0 0 0 .109-.073l1.333-1.333a.333.333 0 0 0-.471-.471l-.765.763v-1.2a2.336 2.336 0 0 0-2.324-2.33h-2a.333.333 0 0 0 0 .667z" class="cls-1" data-name="Path 4434" transform="translate(-289.355 -.041)"/>
                <path id="Path_4435" d="M6.987 10.548a.331.331 0 0 0 .072-.273l-.129-.951A1.427 1.427 0 0 1 7.2 8.3a.336.336 0 0 0 .063-.167l.037-.354a.335.335 0 0 0-.142-.3l-.115-.46A3.123 3.123 0 0 0 7.859 5.4a.769.769 0 0 0 .483-.62l.109-.869a.766.766 0 0 0-.411-.778l.034-.695.132-.138A1.12 1.12 0 0 0 8.242.8 1.935 1.935 0 0 0 6.5 0a2.986 2.986 0 0 0-1.686.437C2.882.488 2.63 1.451 2.63 2.289c0 .182.039.555.069.825a.766.766 0 0 0-.44.792l.109.869a.768.768 0 0 0 .536.639 3.137 3.137 0 0 0 .774 1.558l-.119.477-1.6.4a2.561 2.561 0 0 0-1.94 2.487.333.333 0 0 0 .333.333h6.379a.334.334 0 0 0 .256-.121z" class="cls-1" data-name="Path 4435" transform="translate(-.021)"/>
                <path id="Path_4436" d="M25.036 366.844a1.669 1.669 0 0 1-1.667-1.667v-1.2l.764.764a.333.333 0 1 0 .472-.471l-1.333-1.333a.343.343 0 0 0-.1-.07.333.333 0 0 0-.169-.017.29.29 0 0 0-.041.008.326.326 0 0 0-.152.081l-1.333 1.333a.333.333 0 1 0 .471.471l.764-.764v1.2a2.336 2.336 0 0 0 2.333 2.333.333.333 0 0 0 0-.667z" class="cls-1" data-name="Path 4436" transform="translate(-20.703 -351.509)"/>
                <path id="Path_4437" d="M179.415 178.559l-1.6-.4-.109-.437a3.123 3.123 0 0 0 .817-1.617.769.769 0 0 0 .483-.62l.109-.869a.766.766 0 0 0-.411-.778l.034-.695.133-.134a1.12 1.12 0 0 0 .036-1.5 1.935 1.935 0 0 0-1.744-.8 2.986 2.986 0 0 0-1.684.437c-1.933.051-2.184 1.014-2.184 1.853 0 .182.039.555.069.825a.766.766 0 0 0-.44.792l.109.869a.767.767 0 0 0 .536.639 3.137 3.137 0 0 0 .774 1.558l-.119.477-1.6.4a2.559 2.559 0 0 0-1.939 2.485.333.333 0 0 0 .333.333h10a.334.334 0 0 0 .333-.334 2.556 2.556 0 0 0-1.936-2.484z" class="cls-1" data-name="Path 4437" transform="translate(-165.354 -165.375)"/>
            </g>
        </g>
    </g>
</svg>
