<svg xmlns="http://www.w3.org/2000/svg" viewBox="0 0 20 20.822">
  <defs>
    <style>
      .cls-1 {
        fill: #fff;
      }
    </style>
  </defs>
  <g id="icn_plans" transform="translate(0 0)">
    <g id="Group_1327" data-name="Group 1327" transform="translate(10.448 10.74)">
      <g id="Group_1326" data-name="Group 1326">
        <path id="Path_16813" data-name="Path 16813" class="cls-1" d="M271.968,273.953v3.2c1.217-.3,1.711-1.033,1.711-1.6S273.184,274.252,271.968,273.953Z" transform="translate(-271.968 -273.953)"/>
      </g>
    </g>
    <g id="Group_1329" data-name="Group 1329">
      <g id="Group_1328" data-name="Group 1328" transform="translate(0)">
        <path id="Path_16814" data-name="Path 16814" class="cls-1" d="M29.784,11.926l-.761-1.169a.633.633,0,0,1,0-.691L29.784,8.9a1.992,1.992,0,0,0-.958-2.947l-1.3-.5a.635.635,0,0,1-.407-.56L27.046,3.5a1.993,1.993,0,0,0-2.508-1.822l-1.347.362a.635.635,0,0,1-.657-.214L21.657.74a1.993,1.993,0,0,0-3.1,0L17.68,1.825a.634.634,0,0,1-.657.214l-1.346-.362A1.993,1.993,0,0,0,13.169,3.5L13.1,4.892a.634.634,0,0,1-.406.559l-1.3.5A1.993,1.993,0,0,0,10.431,8.9l.76,1.168a.635.635,0,0,1,0,.692l-.761,1.169a1.992,1.992,0,0,0,.958,2.948l1.3.5a.634.634,0,0,1,.406.559l.072,1.393a1.993,1.993,0,0,0,2.508,1.822l1.346-.362a.634.634,0,0,1,.657.214l.877,1.084a1.994,1.994,0,0,0,3.1,0L22.534,19a.635.635,0,0,1,.657-.214l1.348.363a1.993,1.993,0,0,0,2.507-1.822l.072-1.392a.635.635,0,0,1,.407-.56l1.3-.5A1.993,1.993,0,0,0,29.784,11.926Zm-6.309.487a2.922,2.922,0,0,1-2.718,2.662v.736a.68.68,0,0,1-1.359,0v-.736a2.924,2.924,0,0,1-2.718-2.662.68.68,0,0,1,1.359,0c0,.45.393,1.034,1.359,1.271V11a2.924,2.924,0,0,1-2.718-2.662A2.926,2.926,0,0,1,19.4,5.673V4.937a.68.68,0,0,1,1.359,0v.736a2.924,2.924,0,0,1,2.718,2.662.68.68,0,0,1-1.359,0c0-.45-.393-1.034-1.359-1.271V9.751A2.924,2.924,0,0,1,23.475,12.413Z" transform="translate(-10.107 -0.001)"/>
      </g>
    </g>
    <g id="Group_1331" data-name="Group 1331" transform="translate(7.781 6.809)">
      <g id="Group_1330" data-name="Group 1330">
        <path id="Path_16815" data-name="Path 16815" class="cls-1" d="M205.125,175.288c0,.566.495,1.3,1.711,1.6v-3.2C205.618,173.987,205.125,174.721,205.125,175.288Z" transform="translate(-205.125 -173.688)"/>
      </g>
    </g>
  </g>
</svg>
