<svg xmlns="http://www.w3.org/2000/svg" viewBox="0 0 27.399 18">
  <defs>
    <style>
      .class-1 {
        fill: #00b3d3;
      }
    </style>
  </defs>
  <path id="Union_1" data-name="Union 1" class="class-1" d="M-2003.729-526.978a1.071,1.071,0,0,1,0-1.426.877.877,0,0,1,1.312,0,1.176,1.176,0,0,0,1.721,0,2.721,2.721,0,0,1,4.071,0,1,1,0,0,0,1.444,0,2.766,2.766,0,0,1,4.174-.039,1.01,1.01,0,0,0,1.5.017l.016-.018a2.842,2.842,0,0,1,4.138,0,1.033,1.033,0,0,0,1.513,0,2.826,2.826,0,0,1,4.14,0,1.01,1.01,0,0,0,1.513,0,.875.875,0,0,1,1.312,0,1.071,1.071,0,0,1,0,1.426,2.764,2.764,0,0,1-4.14,0,1.033,1.033,0,0,0-1.514,0,2.826,2.826,0,0,1-4.139,0,1.043,1.043,0,0,0-1.5-.014l-.016.017a2.764,2.764,0,0,1-4.136,0,1.011,1.011,0,0,0-1.516,0,2.771,2.771,0,0,1-4.1.038.969.969,0,0,0-1.447,0,2.934,2.934,0,0,1-2.173.978A2.939,2.939,0,0,1-2003.729-526.978Zm7.1-3.829a2.745,2.745,0,0,0-2.033-.914,2.753,2.753,0,0,0-2.038.915,1.141,1.141,0,0,1-.305.236l-1.293-.121a1.135,1.135,0,0,1-.121-.114.922.922,0,0,0-.383-.251v-3.2a2.573,2.573,0,0,1,2.4-2.71h6.45a2.573,2.573,0,0,1,2.4,2.71v2.948a2.74,2.74,0,0,0-1.528-.471,2.86,2.86,0,0,0-2.109.97.982.982,0,0,1-.722.31A.981.981,0,0,1-1996.625-530.807Zm16.925-.037a2.814,2.814,0,0,0-2.069-.9,2.813,2.813,0,0,0-2.069.9,1.027,1.027,0,0,1-.756.329,1.033,1.033,0,0,1-.758-.329,2.812,2.812,0,0,0-2.07-.895,2.877,2.877,0,0,0-.961.164v-2.678a2.574,2.574,0,0,1,2.4-2.71h6.449a2.573,2.573,0,0,1,2.4,2.71v3.213a.871.871,0,0,0-.4-.1.886.886,0,0,0-.656.3,1.02,1.02,0,0,1-.755.341A1.027,1.027,0,0,1-1979.7-530.843Zm-6.279-10.11a3.049,3.049,0,0,1,3.046-3.047,3.05,3.05,0,0,1,3.047,3.047,3.05,3.05,0,0,1-3.047,3.046A3.049,3.049,0,0,1-1985.979-540.953Zm-14.417,0a3.05,3.05,0,0,1,3.047-3.047,3.05,3.05,0,0,1,3.047,3.047,3.05,3.05,0,0,1-3.047,3.046A3.05,3.05,0,0,1-2000.4-540.953Z" transform="translate(2004 544)"/>
</svg>